<svg style="vertical-align: -2.819ex;" xmlns="http://www.w3.org/2000/svg" width="426.84488000000005px" height="86.5018px" role="img" focusable="false" viewBox="0 -1562.5 13858.6 2808.5" xmlns:xlink="http://www.w3.org/1999/xlink"><defs><path id="MJX-1-TEX-I-1D44B" d="M42 0H40Q26 0 26 11Q26 15 29 27Q33 41 36 43T55 46Q141 49 190 98Q200 108 306 224T411 342Q302 620 297 625Q288 636 234 637H206Q200 643 200 645T202 664Q206 677 212 683H226Q260 681 347 681Q380 681 408 681T453 682T473 682Q490 682 490 671Q490 670 488 658Q484 643 481 640T465 637Q434 634 411 620L488 426L541 485Q646 598 646 610Q646 628 622 635Q617 635 609 637Q594 637 594 648Q594 650 596 664Q600 677 606 683H618Q619 683 643 683T697 681T738 680Q828 680 837 683H845Q852 676 852 672Q850 647 840 637H824Q790 636 763 628T722 611T698 593L687 584Q687 585 592 480L505 384Q505 383 536 304T601 142T638 56Q648 47 699 46Q734 46 734 37Q734 35 732 23Q728 7 725 4T711 1Q708 1 678 1T589 2Q528 2 496 2T461 1Q444 1 444 10Q444 11 446 25Q448 35 450 39T455 44T464 46T480 47T506 54Q523 62 523 64Q522 64 476 181L429 299Q241 95 236 84Q232 76 232 72Q232 53 261 47Q262 47 267 47T273 46Q276 46 277 46T280 45T283 42T284 35Q284 26 282 19Q279 6 276 4T261 1Q258 1 243 1T201 2T142 2Q64 2 42 0Z"></path><path id="MJX-1-TEX-N-AF" d="M69 544V590H430V544H69Z"></path><path id="MJX-1-TEX-I-1D45B" d="M21 287Q22 293 24 303T36 341T56 388T89 425T135 442Q171 442 195 424T225 390T231 369Q231 367 232 367L243 378Q304 442 382 442Q436 442 469 415T503 336T465 179T427 52Q427 26 444 26Q450 26 453 27Q482 32 505 65T540 145Q542 153 560 153Q580 153 580 145Q580 144 576 130Q568 101 554 73T508 17T439 -10Q392 -10 371 17T350 73Q350 92 386 193T423 345Q423 404 379 404H374Q288 404 229 303L222 291L189 157Q156 26 151 16Q138 -11 108 -11Q95 -11 87 -5T76 7T74 17Q74 30 112 180T152 343Q153 348 153 366Q153 405 129 405Q91 405 66 305Q60 285 60 284Q58 278 41 278H27Q21 284 21 287Z"></path><path id="MJX-1-TEX-N-3D" d="M56 347Q56 360 70 367H707Q722 359 722 347Q722 336 708 328L390 327H72Q56 332 56 347ZM56 153Q56 168 72 173H708Q722 163 722 153Q722 140 707 133H70Q56 140 56 153Z"></path><path id="MJX-1-TEX-N-31" d="M213 578L200 573Q186 568 160 563T102 556H83V602H102Q149 604 189 617T245 641T273 663Q275 666 285 666Q294 666 302 660V361L303 61Q310 54 315 52T339 48T401 46H427V0H416Q395 3 257 3Q121 3 100 0H88V46H114Q136 46 152 46T177 47T193 50T201 52T207 57T213 61V578Z"></path><path id="MJX-1-TEX-LO-2211" d="M60 948Q63 950 665 950H1267L1325 815Q1384 677 1388 669H1348L1341 683Q1320 724 1285 761Q1235 809 1174 838T1033 881T882 898T699 902H574H543H251L259 891Q722 258 724 252Q725 250 724 246Q721 243 460 -56L196 -356Q196 -357 407 -357Q459 -357 548 -357T676 -358Q812 -358 896 -353T1063 -332T1204 -283T1307 -196Q1328 -170 1348 -124H1388Q1388 -125 1381 -145T1356 -210T1325 -294L1267 -449L666 -450Q64 -450 61 -448Q55 -446 55 -439Q55 -437 57 -433L590 177Q590 178 557 222T452 366T322 544L56 909L55 924Q55 945 60 948Z"></path><path id="MJX-1-TEX-I-1D456" d="M184 600Q184 624 203 642T247 661Q265 661 277 649T290 619Q290 596 270 577T226 557Q211 557 198 567T184 600ZM21 287Q21 295 30 318T54 369T98 420T158 442Q197 442 223 419T250 357Q250 340 236 301T196 196T154 83Q149 61 149 51Q149 26 166 26Q175 26 185 29T208 43T235 78T260 137Q263 149 265 151T282 153Q302 153 302 143Q302 135 293 112T268 61T223 11T161 -11Q129 -11 102 10T74 74Q74 91 79 106T122 220Q160 321 166 341T173 380Q173 404 156 404H154Q124 404 99 371T61 287Q60 286 59 284T58 281T56 279T53 278T49 278T41 278H27Q21 284 21 287Z"></path><path id="MJX-1-TEX-N-2C" d="M78 35T78 60T94 103T137 121Q165 121 187 96T210 8Q210 -27 201 -60T180 -117T154 -158T130 -185T117 -194Q113 -194 104 -185T95 -172Q95 -168 106 -156T131 -126T157 -76T173 -3V9L172 8Q170 7 167 6T161 3T152 1T140 0Q113 0 96 17Z"></path><path id="MJX-1-TEX-D-1D53C" d="M12 666Q12 675 24 683H582Q590 680 593 672V588Q593 514 591 502T575 490Q567 490 563 495T555 517Q552 556 517 590Q486 623 445 634T340 648H282Q266 636 264 620T260 492V370H277Q329 375 358 391T404 439Q420 480 420 506Q420 529 436 529Q445 529 451 521Q455 517 455 361Q455 333 455 298T456 253Q456 217 453 207T437 197Q420 196 420 217Q420 240 406 270Q377 328 284 335H260V201Q261 174 261 134Q262 73 264 61T278 38Q281 36 282 35H331Q400 35 449 50Q571 93 602 179Q605 203 622 203Q629 203 634 197T640 183Q638 181 624 95T604 3L600 -1H24Q12 5 12 16Q12 35 51 35Q92 38 97 52Q102 60 102 341T97 632Q91 645 51 648Q12 648 12 666ZM137 341Q137 131 136 89T130 37Q129 36 129 35H235Q233 41 231 48L226 61V623L231 635L235 648H129Q132 641 133 638T135 603T137 517T137 341ZM557 603V648H504Q504 646 515 639Q527 634 542 619L557 603ZM420 317V397L406 383Q394 370 380 363L366 355Q373 350 382 346Q400 333 409 328L420 317ZM582 61L586 88Q585 88 582 83Q557 61 526 46L511 37L542 35H577Q577 36 578 39T580 49T582 61Z"></path><path id="MJX-1-TEX-N-5B" d="M118 -250V750H255V710H158V-210H255V-250H118Z"></path><path id="MJX-1-TEX-N-5D" d="M22 710V750H159V-250H22V-210H119V710H22Z"></path><path id="MJX-1-TEX-I-1D707" d="M58 -216Q44 -216 34 -208T23 -186Q23 -176 96 116T173 414Q186 442 219 442Q231 441 239 435T249 423T251 413Q251 401 220 279T187 142Q185 131 185 107V99Q185 26 252 26Q261 26 270 27T287 31T302 38T315 45T327 55T338 65T348 77T356 88T365 100L372 110L408 253Q444 395 448 404Q461 431 491 431Q504 431 512 424T523 412T525 402L449 84Q448 79 448 68Q448 43 455 35T476 26Q485 27 496 35Q517 55 537 131Q543 151 547 152Q549 153 557 153H561Q580 153 580 144Q580 138 575 117T555 63T523 13Q510 0 491 -8Q483 -10 467 -10Q446 -10 429 -4T402 11T385 29T376 44T374 51L368 45Q362 39 350 30T324 12T288 -4T246 -11Q199 -11 153 12L129 -85Q108 -167 104 -180T92 -202Q76 -216 58 -216Z"></path><path id="MJX-1-TEX-N-2E" d="M78 60Q78 84 95 102T138 120Q162 120 180 104T199 61Q199 36 182 18T139 0T96 17T78 60Z"></path></defs><g stroke="#000000" fill="#000000" stroke-width="0" transform="scale(1,-1)"><g data-mml-node="math"><g data-mml-node="msub"><g data-mml-node="TeXAtom" data-mjx-texclass="ORD"><g data-mml-node="mover"><g data-mml-node="mi"><use data-c="1D44B" xlink:href="#MJX-1-TEX-I-1D44B"></use></g><g data-mml-node="mo" transform="translate(515.3,244) translate(-250 0)"><use data-c="AF" xlink:href="#MJX-1-TEX-N-AF"></use></g></g></g><g data-mml-node="mi" transform="translate(861,-150) scale(0.707)"><use data-c="1D45B" xlink:href="#MJX-1-TEX-I-1D45B"></use></g></g><g data-mml-node="mo" transform="translate(1613,0)"><use data-c="3D" xlink:href="#MJX-1-TEX-N-3D"></use></g><g data-mml-node="mfrac" transform="translate(2668.8,0)"><g data-mml-node="mn" transform="translate(270,676)"><use data-c="31" xlink:href="#MJX-1-TEX-N-31"></use></g><g data-mml-node="mi" transform="translate(220,-686)"><use data-c="1D45B" xlink:href="#MJX-1-TEX-I-1D45B"></use></g><rect width="800" height="60" x="120" y="220"></rect></g><g data-mml-node="munderover" transform="translate(3875.5,0)"><g data-mml-node="mo"><use data-c="2211" xlink:href="#MJX-1-TEX-LO-2211"></use></g><g data-mml-node="TeXAtom" transform="translate(148.2,-1087.9) scale(0.707)" data-mjx-texclass="ORD"><g data-mml-node="mi"><use data-c="1D456" xlink:href="#MJX-1-TEX-I-1D456"></use></g><g data-mml-node="mo" transform="translate(345,0)"><use data-c="3D" xlink:href="#MJX-1-TEX-N-3D"></use></g><g data-mml-node="mn" transform="translate(1123,0)"><use data-c="31" xlink:href="#MJX-1-TEX-N-31"></use></g></g><g data-mml-node="TeXAtom" transform="translate(509.9,1150) scale(0.707)" data-mjx-texclass="ORD"><g data-mml-node="mi"><use data-c="1D45B" xlink:href="#MJX-1-TEX-I-1D45B"></use></g></g></g><g data-mml-node="msub" transform="translate(5486.2,0)"><g data-mml-node="mi"><use data-c="1D44B" xlink:href="#MJX-1-TEX-I-1D44B"></use></g><g data-mml-node="mi" transform="translate(861,-150) scale(0.707)"><use data-c="1D456" xlink:href="#MJX-1-TEX-I-1D456"></use></g></g><g data-mml-node="mo" transform="translate(6641.1,0)"><use data-c="2C" xlink:href="#MJX-1-TEX-N-2C"></use></g><g data-mml-node="mstyle" transform="translate(6919.1,0)"><g data-mml-node="mspace"></g></g><g data-mml-node="TeXAtom" data-mjx-texclass="ORD" transform="translate(9085.8,0)"><g data-mml-node="mi"><use data-c="1D53C" xlink:href="#MJX-1-TEX-D-1D53C"></use></g></g><g data-mml-node="mo" transform="translate(9752.8,0)"><use data-c="5B" xlink:href="#MJX-1-TEX-N-5B"></use></g><g data-mml-node="msub" transform="translate(10030.8,0)"><g data-mml-node="TeXAtom" data-mjx-texclass="ORD"><g data-mml-node="mover"><g data-mml-node="mi"><use data-c="1D44B" xlink:href="#MJX-1-TEX-I-1D44B"></use></g><g data-mml-node="mo" transform="translate(515.3,244) translate(-250 0)"><use data-c="AF" xlink:href="#MJX-1-TEX-N-AF"></use></g></g></g><g data-mml-node="mi" transform="translate(861,-150) scale(0.707)"><use data-c="1D45B" xlink:href="#MJX-1-TEX-I-1D45B"></use></g></g><g data-mml-node="mo" transform="translate(11366,0)"><use data-c="5D" xlink:href="#MJX-1-TEX-N-5D"></use></g><g data-mml-node="mo" transform="translate(11921.8,0)"><use data-c="3D" xlink:href="#MJX-1-TEX-N-3D"></use></g><g data-mml-node="mi" transform="translate(12977.6,0)"><use data-c="1D707" xlink:href="#MJX-1-TEX-I-1D707"></use></g><g data-mml-node="mo" transform="translate(13580.6,0)"><use data-c="2E" xlink:href="#MJX-1-TEX-N-2E"></use></g></g></g></svg>